<svg width="40" height="40" viewBox="0 0 40 40" fill="none" xmlns="http://www.w3.org/2000/svg">
<path d="M26.6667 26.6667C30.3486 26.6667 33.3333 23.6819 33.3333 20C33.3333 16.3181 30.3486 13.3333 26.6667 13.3333C22.9848 13.3333 20 16.3181 20 20C20 23.6819 22.9848 26.6667 26.6667 26.6667Z" fill="#19BCFE"/>
<path fill-rule="evenodd" clip-rule="evenodd" d="M13.3333 40C15.1014 40 16.7971 39.2976 18.0474 38.0474C19.2976 36.7971 20 35.1014 20 33.3333V26.6667H13.3333C11.5652 26.6667 9.86954 27.369 8.61929 28.6193C7.36905 29.8695 6.66667 31.5652 6.66667 33.3333C6.66667 35.1014 7.36905 36.7971 8.61929 38.0474C9.86954 39.2976 11.5652 40 13.3333 40Z" fill="#09CF83"/>
<path fill-rule="evenodd" clip-rule="evenodd" d="M13.3333 26.6667H20V13.3333H13.3333C11.5652 13.3333 9.86954 14.0357 8.61929 15.286C7.36905 16.5362 6.66667 18.2319 6.66667 20C6.66667 21.7681 7.36905 23.4638 8.61929 24.7141C9.86954 25.9643 11.5652 26.6667 13.3333 26.6667Z" fill="#A259FF"/>
<path fill-rule="evenodd" clip-rule="evenodd" d="M13.3333 13.3333H20V0H13.3333C11.5652 0 9.86954 0.702379 8.61929 1.95262C7.36905 3.20286 6.66667 4.89856 6.66667 6.66667C6.66667 8.43478 7.36905 10.1305 8.61929 11.3807C9.86954 12.631 11.5652 13.3333 13.3333 13.3333Z" fill="#F24E1E"/>
<path fill-rule="evenodd" clip-rule="evenodd" d="M26.6667 13.3333H20V0H26.6667C28.4348 0 30.1305 0.702379 31.3807 1.95262C32.631 3.20286 33.3333 4.89856 33.3333 6.66667C33.3333 8.43478 32.631 10.1305 31.3807 11.3807C30.1305 12.631 28.4348 13.3333 26.6667 13.3333Z" fill="#FF7262"/>
</svg>
