<svg width="48" height="48" viewBox="0 0 48 48" fill="none" xmlns="http://www.w3.org/2000/svg">
<path d="M6.80624 1L9.89999 35.9969L24 40L38.0437 35.9969L41.1984 1H6.80624ZM34.6969 9.30156L34.4719 11.5141L34.3922 12.4281H17.9203L18.3047 16.8438H34.0125L33.8578 17.9828L32.864 29.3359L32.7844 30.0953L24.0187 32.5141V32.5281H23.9625L23.9484 32.5328V32.5281H23.9437L15.1031 30.0906L14.5687 23.3125H18.839L19.1437 26.7438L23.9437 28.0422H23.9625L28.7437 26.7484L29.2781 21.1891H23.9484V21.1844H14.3437L13.275 9.30156L13.1953 8.1625H34.7718L34.6969 9.30156V9.30156Z" fill="#FCA522"/>
</svg>
