<svg width="56" height="56" viewBox="0 0 56 56" fill="none" xmlns="http://www.w3.org/2000/svg">
<path d="M8 18.4C8 16.1722 8.885 14.0356 10.4603 12.4603C12.0356 10.885 14.1722 10 16.4 10H38.8C41.0278 10 43.1644 10.885 44.7397 12.4603C46.315 14.0356 47.2 16.1722 47.2 18.4V40.8C47.2 43.0278 46.315 45.1644 44.7397 46.7397C43.1644 48.315 41.0278 49.2 38.8 49.2H16.4C14.1722 49.2 12.0356 48.315 10.4603 46.7397C8.885 45.1644 8 43.0278 8 40.8V18.4ZM28.3 22.6C27.743 22.6 27.2089 22.8212 26.8151 23.2151C26.4213 23.6089 26.2 24.143 26.2 24.7V38.7C26.2 38.8857 26.1263 39.0637 25.995 39.195C25.8637 39.3263 25.6857 39.4 25.5 39.4H22.7C22.143 39.4 21.6089 39.6212 21.2151 40.0151C20.8212 40.4089 20.6 40.943 20.6 41.5C20.6 42.057 20.8212 42.5911 21.2151 42.9849C21.6089 43.3787 22.143 43.6 22.7 43.6H25.5C26.7996 43.6 28.0459 43.0838 28.9648 42.1648C29.8838 41.2459 30.4 39.9996 30.4 38.7V24.7C30.4 24.143 30.1787 23.6089 29.7849 23.2151C29.3911 22.8212 28.857 22.6 28.3 22.6ZM31.8 27.5V30.3C31.8 33.0048 33.9952 35.2 36.7 35.2H38.1C38.2857 35.2 38.4637 35.2737 38.595 35.405C38.7263 35.5363 38.8 35.7143 38.8 35.9V38.7C38.8 38.8857 38.7263 39.0637 38.595 39.195C38.4637 39.3263 38.2857 39.4 38.1 39.4H33.9C33.343 39.4 32.8089 39.6212 32.4151 40.0151C32.0213 40.4089 31.8 40.943 31.8 41.5C31.8 42.057 32.0213 42.5911 32.4151 42.9849C32.8089 43.3787 33.343 43.6 33.9 43.6H38.1C39.3996 43.6 40.6459 43.0838 41.5648 42.1648C42.4838 41.2459 43 39.9996 43 38.7V35.9C43 34.6004 42.4838 33.3541 41.5648 32.4352C40.6459 31.5162 39.3996 31 38.1 31H36.7C36.5143 31 36.3363 30.9263 36.205 30.795C36.0737 30.6637 36 30.4857 36 30.3V27.5C36 27.3143 36.0737 27.1363 36.205 27.005C36.3363 26.8737 36.5143 26.8 36.7 26.8H40.9C41.457 26.8 41.9911 26.5787 42.3849 26.1849C42.7787 25.7911 43 25.257 43 24.7C43 24.143 42.7787 23.6089 42.3849 23.2151C41.9911 22.8212 41.457 22.6 40.9 22.6H36.7C35.4004 22.6 34.1541 23.1162 33.2352 24.0352C32.3162 24.9541 31.8 26.2004 31.8 27.5V27.5Z" fill="#FCA522"/>
</svg>
