<svg width="22" height="14" viewBox="0 0 22 14" fill="none" xmlns="http://www.w3.org/2000/svg">
<path d="M5 13C7.20914 13 9 11.2091 9 9C9 6.79086 7.20914 5 5 5C2.79086 5 1 6.79086 1 9C1 11.2091 2.79086 13 5 13Z" stroke="#444343" stroke-width="2" stroke-linecap="round" stroke-linejoin="round"/>
<path d="M17 13C19.2091 13 21 11.2091 21 9C21 6.79086 19.2091 5 17 5C14.7909 5 13 6.79086 13 9C13 11.2091 14.7909 13 17 13Z" stroke="#444343" stroke-width="2" stroke-linecap="round" stroke-linejoin="round"/>
<path d="M9 9.00001L9.211 8.89401C9.76646 8.61626 10.379 8.47165 11 8.47165C11.621 8.47165 12.2335 8.61626 12.789 8.89401L13 9.00001" stroke="#444343" stroke-width="2" stroke-linecap="round" stroke-linejoin="round"/>
<path d="M18 1L20.838 7.623C20.9448 7.87198 20.9999 8.14007 21 8.411V9" stroke="#444343" stroke-width="2" stroke-linecap="round" stroke-linejoin="round"/>
<path d="M4 1L1.162 7.623C1.05532 7.87167 1.00021 8.13941 1 8.41V9" stroke="#444343" stroke-width="2" stroke-linecap="round" stroke-linejoin="round"/>
</svg>
