<svg width="24" height="19" viewBox="0 0 24 19" fill="none" xmlns="http://www.w3.org/2000/svg">
<g clip-path="url(#clip0_39_57)">
<path d="M23.4 16.625H0.599984C0.268484 16.625 -1.54722e-05 16.8907 -1.54722e-05 17.2187V18.4062C-1.54722e-05 18.7343 0.268484 19 0.599984 19H23.4C23.7315 19 24 18.7343 24 18.4062V17.2187C24 16.8907 23.7315 16.625 23.4 16.625ZM3.02061 12.6643C3.25611 12.9181 3.58686 13.0621 3.93298 13.0618L8.82823 13.0551C9.21455 13.0546 9.59533 12.964 9.93973 12.7909L20.8507 7.31165C21.8535 6.80808 22.7524 6.08927 23.364 5.14781C24.0506 4.09093 24.1252 3.32611 23.8541 2.78579C23.5837 2.24511 22.9264 1.84804 21.6697 1.76714C20.5504 1.69515 19.437 1.98683 18.4342 2.49003L14.7401 4.34513L6.53886 1.29993C6.44025 1.2342 6.32569 1.19572 6.20702 1.18848C6.08835 1.18124 5.96988 1.20549 5.86386 1.25874L3.39823 2.49708C2.99811 2.69784 2.90136 3.22628 3.20436 3.55581L9.06261 7.19624L5.19223 9.14003L2.47911 7.78665C2.38563 7.74002 2.28239 7.71579 2.17771 7.71591C2.07302 7.71604 1.96984 7.74053 1.87648 7.7874L0.371609 8.54331C-0.0198904 8.73999 -0.123015 9.25284 0.162734 9.58534L3.02061 12.6643Z" fill="#444343"/>
</g>
<defs>
<clipPath id="clip0_39_57">
<rect width="24" height="19" fill="white"/>
</clipPath>
</defs>
</svg>
